# xmcd CD database file
#
# Track frame offsets:
#	150
#	22112
#	45870
#	67877
#
# Disc length: 1219 seconds
#
# Revision: 1
# Processed by: cddbd v1.5PL3 Copyright (c) Steve Scherf et al.
# Submitted via: CDex 1.51
#
DISCID=2704c104
DTITLE=少年隊 - 愛と沈黙
DYEAR=1998
DGENRE=J-pop
TTITLE0=愛と沈黙
TTITLE1=NIGHT WING
TTITLE2=愛と沈黙(オリジナル・カラオケ)
TTITLE3=NIGHT WING(オリジナル・カラオケ)
EXTD=YEAR: 1998
EXTT0=
EXTT1=
EXTT2=
EXTT3=
PLAYORDER=
